<svg xmlns="http://www.w3.org/2000/svg" viewBox="0 0 50 49.82"><defs><style>.cls-1{fill:#fff;}</style></defs><g id="Capa_2" data-name="Capa 2"><g id="Capa_1-2" data-name="Capa 1"><path class="cls-1" d="M24.82,0A25.09,25.09,0,0,1,49.73,21.19a25,25,0,0,1-21,28.35,24.12,24.12,0,0,1-14.38-2.21,3,3,0,0,0-2.21-.21C8.77,48,5.39,48.82,2,49.64.44,50-.22,49.34.2,47.79Q1.55,42.87,3,38a2.23,2.23,0,0,0-.15-1.8C-5,21,4.39,3.08,21.06.31A18,18,0,0,1,24.82,0ZM2.92,47c3.3-.81,6.38-1.54,9.44-2.33a3.08,3.08,0,0,1,2.32.27,22,22,0,0,0,15.47,1.92A22.51,22.51,0,0,0,21,2.74,22.42,22.42,0,0,0,4.84,35a5.06,5.06,0,0,1,.32,4.09C4.37,41.59,3.7,44.16,2.92,47Z"/><path class="cls-1" d="M37.59,29l-3.81-1.8c-2.35-1.11-2.87-1-4.47,1a3.48,3.48,0,0,0-.46.57c-.52.91-1.16.87-2,.45A16.6,16.6,0,0,1,20.61,24,1.34,1.34,0,0,1,20.7,22a3.12,3.12,0,0,0,1-3.43c-.68-1.72-1.42-3.43-2.17-5.13A2.37,2.37,0,0,0,18.06,12,4.73,4.73,0,0,0,13,13.45a8.62,8.62,0,0,0-.83,10.47A29.09,29.09,0,0,0,23.59,35.43,20.15,20.15,0,0,0,31.32,38c3.64-.05,7.51-1.92,7.85-6.09A2.46,2.46,0,0,0,37.59,29Z"/></g></g></svg>