<svg xmlns="http://www.w3.org/2000/svg" viewBox="0 0 50 50"><defs><style>.cls-1{fill:#fff;}</style></defs><g id="Capa_2" data-name="Capa 2"><g id="Capa_1-2" data-name="Capa 1"><path class="cls-1" d="M0,25A25,25,0,1,1,25,50,25,25,0,0,1,0,25Zm26.89,7.46c0-2.24,0-4.48,0-6.72,0-.75,0-.75.77-.76h3.18c.24,0,.45,0,.48-.34.14-1.63.28-3.26.44-4.89,0-.43-.14-.56-.55-.55-1.14,0-2.29,0-3.43,0-.5,0-.71-.14-.68-.66s0-1.06,0-1.59c0-1.16.52-1.68,1.68-1.7h2.48c.33,0,.48-.12.48-.47,0-1.3,0-2.61,0-3.91,0-.38-.16-.49-.51-.49-1.57,0-3.14,0-4.7,0a5.38,5.38,0,0,0-5.35,4.94,28.54,28.54,0,0,0-.08,3.07c0,.77,0,.77-.81.78-.53,0-1.06,0-1.58,0-.37,0-.51.14-.51.5,0,1.61,0,3.21,0,4.81,0,.34.14.48.47.48s1,0,1.43,0c1,0,1,0,1,1,0,4.39,0,8.78,0,13.17,0,.49.12.68.65.67,1.5,0,3,0,4.49,0,.53,0,.66-.17.65-.67C26.87,36.9,26.89,34.68,26.89,32.46Z"/></g></g></svg>