<svg xmlns="http://www.w3.org/2000/svg" viewBox="0 0 50 49.24"><defs><style>.cls-1{fill:#fff;}</style></defs><g id="Capa_2" data-name="Capa 2"><g id="Capa_1-2" data-name="Capa 1"><path class="cls-1" d="M32.45,43.9c-.06-1.22.09-2.71-.1-4.2a6.85,6.85,0,0,0-.54-1.93c-.25-.56-.25-.58.38-.7A17.1,17.1,0,0,0,35.73,36a10.44,10.44,0,0,0,6-7,16.79,16.79,0,0,0,.4-8.18,10.89,10.89,0,0,0-1.84-4.09,1.18,1.18,0,0,1-.2-1,10.88,10.88,0,0,0-.52-6.21A1.6,1.6,0,0,0,38,8.3a9.42,9.42,0,0,0-4.48,1.32,18.64,18.64,0,0,0-1.79,1.05,1.59,1.59,0,0,1-1.25.24,34.87,34.87,0,0,0-5.59-.59,28.43,28.43,0,0,0-5.59.57,1.43,1.43,0,0,1-1.1-.2,14,14,0,0,0-5.39-2.12,6.11,6.11,0,0,0-.95-.05,1.51,1.51,0,0,0-1.59,1.22,11.25,11.25,0,0,0-.4,6.37.66.66,0,0,1-.15.59,12.32,12.32,0,0,0-2.19,8.81A15.4,15.4,0,0,0,9,31.16a11.49,11.49,0,0,0,6.53,5.46,17.76,17.76,0,0,0,2.29.68c.36.08.47.24.29.59a2,2,0,0,0-.22.59,1.43,1.43,0,0,1-1.44,1.23,3.92,3.92,0,0,1-3.92-1.31c-.36-.44-.75-.88-1.11-1.33A6.33,6.33,0,0,0,7,34.59,2.61,2.61,0,0,0,5.32,35a1.29,1.29,0,0,0-.39,2,3.5,3.5,0,0,0,1,.9,6.09,6.09,0,0,1,2.6,3.38A6.69,6.69,0,0,0,14,45.64a13.11,13.11,0,0,0,2.8.12c.45,0,.64.15.63.62,0,.76,0,1.52,0,2.28,0,.58-.2.7-.74.47C8.09,45.35,2.42,39.05.54,29.79A24,24,0,0,1,6.23,8.52,23.93,23.93,0,0,1,21.13.31,24.91,24.91,0,0,1,47.49,14a23.94,23.94,0,0,1,2.45,9.12A24.51,24.51,0,0,1,42.31,43a23.74,23.74,0,0,1-8.94,5.49c-.74.26-.92.13-.92-.66C32.44,46.61,32.45,45.38,32.45,43.9Z"/></g></g></svg>