<svg xmlns="http://www.w3.org/2000/svg" viewBox="0 0 50 31.82"><defs><style>.cls-1{fill:#fff;}</style></defs><g id="Capa_2" data-name="Capa 2"><g id="Capa_1-2" data-name="Capa 1"><path class="cls-1" d="M0,0H15.41a14.88,14.88,0,0,1,3.87.44,7.56,7.56,0,0,1,5.63,7.24A8.45,8.45,0,0,1,24.48,11a5.3,5.3,0,0,1-3.75,3.19c2.91.35,4.33,2.16,5,4.75a11.94,11.94,0,0,1,.06,5.45,8.06,8.06,0,0,1-5.86,6.14,13.19,13.19,0,0,1-4.18.61H.63l-.63,0ZM12.07,17.31c-1.64,0-3,0-4.34,0-.44,0-.59.12-.59.58q0,3.53,0,7.07c0,.44.12.59.58.59q3.63,0,7.27,0a10,10,0,0,0,1.45-.1,3,3,0,0,0,2.69-2.35A6.08,6.08,0,0,0,19,19.62a3.07,3.07,0,0,0-2.73-2.25C14.8,17.22,13.29,17.36,12.07,17.31ZM11.88,5.67H7.63c-.3,0-.48.06-.48.42,0,2,0,4,0,6,0,.28.09.41.39.41,2.77,0,5.53,0,8.29,0A2.08,2.08,0,0,0,18,10.72a6.54,6.54,0,0,0,.13-3,2.26,2.26,0,0,0-2.57-2.1Z"/><path class="cls-1" d="M41.87,21.48H34.5c-.62,0-.65.06-.59.68a4.54,4.54,0,0,0,3.5,4.35,7.5,7.5,0,0,0,4.79-.29,3,3,0,0,0,2-2.42c0-.29.16-.4.44-.4,1.57,0,3.15,0,4.73,0,.35,0,.41.16.4.49-.11,3.73-2.34,6.12-5.65,7.16a16,16,0,0,1-9.83,0,9.78,9.78,0,0,1-6.72-7.53A13.66,13.66,0,0,1,29,13.33a10,10,0,0,1,7.26-5.15,14.54,14.54,0,0,1,5.95.06,9.17,9.17,0,0,1,7.14,6.67,17.5,17.5,0,0,1,.68,6c0,.47-.24.56-.65.56Zm-3-4.24h4.2c.82,0,.85,0,.7-.82a4.1,4.1,0,0,0-2.71-3.53,5.32,5.32,0,0,0-7.14,3.88c-.11.41.07.47.42.47Z"/><path class="cls-1" d="M38.79,5.78c-1.93,0-3.87,0-5.8,0-.5,0-.65-.16-.63-.64,0-.93,0-1.86,0-2.78,0-.41.15-.54.55-.54q5.91,0,11.84,0c.41,0,.54.16.54.55q0,1.44,0,2.88c0,.4-.16.53-.55.53Z"/></g></g></svg>