<svg xmlns="http://www.w3.org/2000/svg" viewBox="0 0 50 38.2"><defs><style>.cls-1{fill:#fff;}</style></defs><g id="Capa_2" data-name="Capa 2"><g id="Capa_1-2" data-name="Capa 1"><path class="cls-1" d="M25,0C6.22,0,3.34,12.68,2.9,16.56a1,1,0,0,0,1,1.12H46.11a1,1,0,0,0,1-1.12C46.66,12.68,43.78,0,25,0ZM10.71,13.81a2,2,0,0,1-2.19-1.66,2,2,0,0,1,2.19-1.67,2,2,0,0,1,2.19,1.67A2,2,0,0,1,10.71,13.81ZM17.86,7.2a2,2,0,0,1-2.19-1.66,2,2,0,0,1,2.19-1.67,2,2,0,0,1,2.19,1.67A2,2,0,0,1,17.86,7.2ZM25,13.81a2,2,0,0,1-2.19-1.66A2,2,0,0,1,25,10.48a2,2,0,0,1,2.19,1.67A2,2,0,0,1,25,13.81ZM32.14,7.2A2,2,0,0,1,30,5.54a2,2,0,0,1,2.19-1.67,2,2,0,0,1,2.19,1.67A2,2,0,0,1,32.14,7.2Zm7.15,6.61a2,2,0,0,1-2.19-1.66,2,2,0,0,1,2.19-1.67,2,2,0,0,1,2.19,1.67A2,2,0,0,1,39.29,13.81Z"/><path class="cls-1" d="M4.82,38.2H45.18a2,2,0,0,0,2-2v-5a1,1,0,0,0-1-1H3.82a1,1,0,0,0-1,1v5A2,2,0,0,0,4.82,38.2Z"/><path class="cls-1" d="M43.86,20.86l-4.67,4.77-4.66-4.77H3.2A3.2,3.2,0,0,0,0,24.06H0a3.19,3.19,0,0,0,3.2,3.19H46.8A3.19,3.19,0,0,0,50,24.06h0a3.2,3.2,0,0,0-3.2-3.2Z"/></g></g></svg>