<svg xmlns="http://www.w3.org/2000/svg" viewBox="0 0 50 40.8"><defs><style>.cls-1{fill:#fff;}</style></defs><g id="Capa_2" data-name="Capa 2"><g id="Capa_1-2" data-name="Capa 1"><path class="cls-1" d="M0,36.14a6.85,6.85,0,0,1,1.36.06,20.62,20.62,0,0,0,13.31-4l.22-.18a3,3,0,0,0-1.15-.22,10.24,10.24,0,0,1-8-6.52c-.22-.54-.18-.59.4-.5A10.36,10.36,0,0,0,10,24.55a10,10,0,0,1-4.14-2A10.08,10.08,0,0,1,2,15.41C2,15.2,2,15,2,14.78c0-.39.11-.48.45-.29a9.41,9.41,0,0,0,2.77.92c.37.07.74.11,1.15.16,0-.22-.2-.27-.31-.36A10.12,10.12,0,0,1,2.11,8,10,10,0,0,1,3.17,2.45c.31-.61.32-.62.76-.1a28.6,28.6,0,0,0,7.4,6.24A28.48,28.48,0,0,0,22.2,12.36c.6.07,1.2.14,1.8.18s.58,0,.5-.54a9.73,9.73,0,0,1,.86-6.1A10,10,0,0,1,33.16.13a10,10,0,0,1,8.7,2.79.77.77,0,0,0,.78.21A21.12,21.12,0,0,0,48.24,1a.63.63,0,0,1,.49-.14,10.42,10.42,0,0,1-4.26,5.52A20.79,20.79,0,0,0,50,4.86c.11.21,0,.29-.1.39A19.29,19.29,0,0,1,45.6,9.73,1.32,1.32,0,0,0,45,11a29.62,29.62,0,0,1-6.56,19.12A27.28,27.28,0,0,1,20.53,40.44,29.42,29.42,0,0,1,1.79,37.25c-.61-.32-1.15-.75-1.79-1Z"/></g></g></svg>