<svg xmlns="http://www.w3.org/2000/svg" viewBox="0 0 49.55 50"><defs><style>.cls-1{fill:#fff;}</style></defs><g id="Capa_2" data-name="Capa 2"><g id="Capa_1-2" data-name="Capa 1"><path class="cls-1" d="M49.55,25c0,4.78,0,9.56,0,14.34A10.47,10.47,0,0,1,39,50q-14.22,0-28.44,0A10.58,10.58,0,0,1,0,39.37Q0,25,0,10.69A10.58,10.58,0,0,1,10.56,0Q24.78,0,39,0A10.53,10.53,0,0,1,49.54,10.58C49.56,15.4,49.55,20.22,49.55,25Zm-4.49,0c0-4.7,0-9.4,0-14.1a6.09,6.09,0,0,0-6.34-6.43q-13.92-.06-27.85,0A6.13,6.13,0,0,0,4.5,11q0,14.1,0,28.21a6.1,6.1,0,0,0,6.31,6.34q14,0,28,0a6,6,0,0,0,6.29-6.33C45.07,34.46,45.06,29.76,45.06,25.05Z"/><path class="cls-1" d="M24,12.07A13,13,0,0,1,37.79,24.33a13,13,0,1,1-26,1.39A12.91,12.91,0,0,1,24,12.07ZM16.35,25a8.5,8.5,0,0,0,8.47,8.54A8.69,8.69,0,0,0,33.33,25a8.49,8.49,0,0,0-8.5-8.4A8.28,8.28,0,0,0,16.35,25Z"/><path class="cls-1" d="M38.59,14.55a3.07,3.07,0,0,1-3.1-3.08,3.15,3.15,0,0,1,6.29,0A3.09,3.09,0,0,1,38.59,14.55Z"/></g></g></svg>